<svg width="25" height="30" viewBox="0 0 25 30" fill="none" xmlns="http://www.w3.org/2000/svg">
<path d="M20.8777 15.8689C20.8777 16.0028 20.6782 19.9534 25 22.0292C24.2021 24.5066 21.4096 29.9973 18.1516 29.9973C16.2899 29.9973 15.2261 28.792 13.0984 28.792C10.9043 28.792 9.70744 29.9973 8.0452 29.9973C4.85371 30.1312 1.79521 24.1049 0.930853 21.6274C0.265958 19.7525 0 17.9446 0 16.2037C0 10.2443 3.92287 7.36503 7.64628 7.29807C9.4415 7.29807 11.7022 8.57031 12.6995 8.57031C13.6303 8.57031 16.2234 7.03025 18.617 7.23111C21.0771 7.432 22.9388 8.36942 24.2021 10.1773C22.008 11.5835 20.8777 13.3914 20.8777 15.8689ZM17.1543 4.88755C15.8245 6.42761 14.2287 7.29807 12.5 7.16418C12.367 5.35626 13.0319 3.68227 14.2287 2.34309C15.2926 1.13782 17.1543 0.13343 18.75 -0.000488281C18.75 0.736064 18.9495 2.74485 17.1543 4.88755Z" fill="#21212D"/>
</svg>
