<svg width="27" height="30" viewBox="0 0 27 30" fill="none" xmlns="http://www.w3.org/2000/svg">
<path d="M1.47093 0.129842L19.0154 10.2564L25.7699 14.1585C26.4036 14.5398 26.4088 15.4508 25.7797 15.8371L25.7499 15.857L1.48569 29.8658L1.46577 29.8756C1.21827 30.0144 0.945932 30.0291 0.708277 29.9598C0.312186 29.8409 0 29.4795 0 29.0091V0.9914C0 0.521012 0.311951 0.159608 0.708277 0.0407804C0.950854 -0.0288286 1.2232 -0.0138286 1.47093 0.129842Z" fill="#47BCFF"/>
<path d="M1.47261 0.129411L19.0171 10.256L14.61 15L0.709961 0.0401151C0.952538 -0.0292595 1.22488 -0.0142596 1.47261 0.129411Z" fill="#0BDF74"/>
<path d="M19.0146 10.2568L25.769 14.1589C26.4027 14.5403 26.4079 15.4513 25.7788 15.8375L25.7491 15.8574L19.0146 19.7396L14.6074 15.0008L19.0146 10.2568Z" fill="#FDBA21"/>
<path d="M14.61 15L19.0171 19.739L1.48738 29.8656L1.46746 29.8755C1.21996 30.0142 0.947616 30.029 0.709961 29.9596L14.61 15Z" fill="#FB434C"/>
</svg>
