<svg width="16" height="16" viewBox="0 0 16 16" fill="none" xmlns="http://www.w3.org/2000/svg">
<path d="M10.4178 0C12.0178 0 12.8178 0 13.6889 0.266667C14.6311 0.604444 15.3778 1.35111 15.7156 2.29333C16 3.16444 16 3.98222 16 5.58222V10.4178C16 12.0178 16 12.8178 15.7333 13.6889C15.3956 14.6311 14.6489 15.3778 13.7067 15.7156C12.8178 16 12.0178 16 10.4178 16H5.58222C3.98222 16 3.18222 16 2.31111 15.7333C1.35111 15.3778 0.622222 14.6489 0.266667 13.6889C0 12.8356 0 12.0356 0 10.4178V5.58222C0 3.98222 0 3.18222 0.266667 2.31111C0.622222 1.36889 1.35111 0.622222 2.31111 0.284444C3.16444 -2.11928e-08 3.96444 0 5.58222 0H10.4178Z" fill="#141414"/>
<path d="M4.28001 10.264C4.29557 10.2329 4.32668 10.2174 4.35779 10.2018C4.48223 10.1707 4.60668 10.1396 4.73112 10.1396C5.07334 10.1396 5.38445 10.264 5.63334 10.4818C5.66445 10.5129 5.66445 10.5596 5.6489 10.5907L5.01112 11.6796C4.88668 11.8974 4.65334 12.0218 4.42001 12.0218C4.28001 12.0218 4.14001 11.9751 4.01557 11.8818C3.73557 11.6796 3.67334 11.2751 3.84445 10.9796L4.28001 10.264ZM12.5711 8.59958C12.9289 8.59958 13.24 8.86403 13.2711 9.20625C13.3022 9.61069 12.9911 9.95292 12.6022 9.95292H11.7778L12.3845 10.9951C12.5556 11.2907 12.4933 11.6951 12.2133 11.8974C12.0889 11.9907 11.9489 12.0374 11.8089 12.0374C11.5756 12.0374 11.3422 11.9129 11.2178 11.6951L9.75557 9.15958L8.60445 7.16847C8.5889 7.15292 8.5889 7.13736 8.5889 7.10625C8.5889 7.02847 8.57334 6.95069 8.57334 6.87292C8.57334 6.32847 8.69779 5.78403 8.94668 5.34847C8.97779 5.3018 9.05557 5.3018 9.08668 5.34847L10.9845 8.58403H12.5711V8.59958ZM8.99334 8.63069C9.33557 8.83292 9.55334 9.2218 9.55334 9.65736C9.55334 9.75069 9.53779 9.82847 9.52223 9.9218C9.52223 9.93736 9.49112 9.95292 9.47557 9.95292H7.29779H3.67334C3.28445 9.95292 2.95779 9.61069 3.00445 9.20625C3.03557 8.84847 3.34668 8.59958 3.70445 8.59958H5.24445L7.34445 4.99069L6.7689 4.01069C6.56668 3.66847 6.70668 3.21736 7.08001 3.0618C7.40668 2.9218 7.78001 3.0618 7.96668 3.35736L8.13779 3.65292L8.32445 3.3418C8.52668 2.99958 8.97779 2.89069 9.30445 3.12403C9.60001 3.32625 9.66223 3.73069 9.47557 4.0418L6.80001 8.59958H7.8889H8.88446C8.93112 8.59958 8.96223 8.61514 8.99334 8.63069Z" fill="white"/>
</svg>
