<svg width="15" height="16" viewBox="0 0 15 16" fill="none" xmlns="http://www.w3.org/2000/svg">
<g id="Group 1000003788">
<g id="Group">
<g id="Group_2">
<path id="Vector" d="M2.42781 0.251792C2.06331 0.0162602 1.6255 -0.0549274 1.21484 0.0420103L8.43148 7.25868L10.7704 4.91974L2.42781 0.251792Z" fill="black"/>
</g>
</g>
<g id="Group_3">
<g id="Group_4">
<path id="Vector_2" d="M0.317125 0.628662C0.115844 0.896256 0 1.22482 0 1.57238V14.4273C0 14.7749 0.115875 15.1035 0.317125 15.3711L7.68829 7.99989L0.317125 0.628662Z" fill="black"/>
</g>
</g>
<g id="Group_5">
<g id="Group_6">
<path id="Vector_3" d="M13.8222 6.62757L11.7201 5.45142L9.17188 7.99967L11.7203 10.548L13.8225 9.3718C14.3262 9.08961 14.6269 8.57673 14.6269 7.99967C14.6269 7.42261 14.3262 6.90976 13.8222 6.62757Z" fill="black"/>
</g>
</g>
<g id="Group_7">
<g id="Group_8">
<path id="Vector_4" d="M8.43104 8.74084L1.21484 15.957C1.33316 15.9849 1.45356 15.9999 1.57397 15.9999C1.87153 15.9999 2.16806 15.9153 2.42741 15.7477L10.7701 11.0798L8.43104 8.74084Z" fill="black"/>
</g>
</g>
</g>
</svg>
