<svg width="16" height="15" viewBox="0 0 16 15" fill="none" xmlns="http://www.w3.org/2000/svg">
<path d="M10.6783 4.62536L14.5851 5.19908C14.9129 5.25372 15.1861 5.47228 15.2954 5.80013C15.4047 6.10065 15.3227 6.45581 15.0768 6.67438L12.2355 9.48836L12.9185 13.4771C12.9732 13.805 12.8366 14.1328 12.5634 14.324C12.2902 14.5426 11.935 14.5426 11.6345 14.406L8.1375 12.5209L4.61319 14.406C4.33999 14.5426 3.9575 14.5426 3.71162 14.324C3.43842 14.1328 3.30182 13.805 3.35646 13.4771L4.01214 9.48836L1.17084 6.67438C0.924957 6.45581 0.842996 6.10065 0.952277 5.80013C1.06156 5.47228 1.33476 5.25372 1.6626 5.19908L5.59672 4.62536L7.34521 0.991764C7.48182 0.691242 7.78234 0.5 8.1375 0.5C8.46534 0.5 8.76587 0.691242 8.90247 0.991764L10.6783 4.62536Z" fill="url(#paint0_linear_5094_227)"/>
<defs>
<linearGradient id="paint0_linear_5094_227" x1="2.12907" y1="1.41" x2="21.4078" y2="1.90617" gradientUnits="userSpaceOnUse">
<stop stop-color="#FFAE34"/>
<stop offset="0.500947" stop-color="#FF6B34"/>
<stop offset="1" stop-color="#FF0083"/>
</linearGradient>
</defs>
</svg>
