<svg width="200" height="280" viewBox="0 0 200 280" fill="none" xmlns="http://www.w3.org/2000/svg">
<g filter="url(#filter0_b_5005_86)">
<mask id="path-1-inside-1_5005_86" fill="white">
<path fill-rule="evenodd" clip-rule="evenodd" d="M30 0C13.4315 0 0 13.4315 0 30V191.852C0.7547 198.536 7.31943 214.756 27.2352 215.293C53.5 216 62 226.5 61.1967 250.122C60.5142 270.192 79.9436 277.564 89 279.675C89.5378 279.8 89.6835 279.908 89.479 280H176C189.255 280 200 269.255 200 256V24C200 10.7452 189.255 0 176 0H30Z"/>
</mask>
<path fill-rule="evenodd" clip-rule="evenodd" d="M30 0C13.4315 0 0 13.4315 0 30V191.852C0.7547 198.536 7.31943 214.756 27.2352 215.293C53.5 216 62 226.5 61.1967 250.122C60.5142 270.192 79.9436 277.564 89 279.675C89.5378 279.8 89.6835 279.908 89.479 280H176C189.255 280 200 269.255 200 256V24C200 10.7452 189.255 0 176 0H30Z" fill="white" fill-opacity="0.94"/>
<path d="M0 191.852H-1V191.908L-0.993687 191.964L0 191.852ZM27.2352 215.293L27.2083 216.292H27.2083L27.2352 215.293ZM61.1967 250.122L60.1973 250.088L61.1967 250.122ZM89 279.675L88.773 280.649H88.773L89 279.675ZM89.479 280L89.069 279.088L89.479 281V280ZM1 30C1 13.9837 13.9837 1 30 1V-1C12.8792 -1 -1 12.8792 -1 30H1ZM1 191.852V30H-1V191.852H1ZM27.2621 214.293C17.6085 214.033 11.2484 209.987 7.1933 205.229C3.109 200.437 1.35075 194.902 0.993687 191.74L-0.993687 191.964C-0.596049 195.486 1.30541 201.404 5.6711 206.526C10.066 211.683 16.9461 216.016 27.2083 216.292L27.2621 214.293ZM62.1961 250.156C62.6006 238.261 60.6804 229.392 55.0963 223.431C49.5127 217.47 40.4845 214.649 27.2621 214.293L27.2083 216.292C40.2508 216.644 48.6049 219.426 53.6367 224.798C58.6679 230.169 60.5961 238.361 60.1973 250.088L62.1961 250.156ZM89.227 278.701C84.7714 277.663 77.8066 275.336 72.0622 270.845C66.3508 266.381 61.8681 259.803 62.1961 250.156L60.1973 250.088C59.8429 260.511 64.7336 267.655 70.8304 272.421C76.8941 277.161 84.1722 279.577 88.773 280.649L89.227 278.701ZM89.8889 280.912C89.9596 280.88 90.0669 280.826 90.1753 280.736C90.2789 280.651 90.4548 280.475 90.5319 280.187C90.72 279.486 90.1688 279.084 90.0873 279.028C89.9312 278.92 89.7622 278.856 89.6513 278.819C89.5233 278.775 89.3792 278.737 89.227 278.701L88.773 280.649C88.8897 280.676 88.9655 280.698 89.0097 280.713C89.0709 280.734 89.0264 280.726 88.9484 280.672C88.9098 280.645 88.8005 280.565 88.7075 280.414C88.5983 280.237 88.5199 279.968 88.6001 279.669C88.6706 279.406 88.8285 279.255 88.903 279.193C88.9823 279.128 89.0494 279.097 89.069 279.088L89.8889 280.912ZM176 279H89.479V281H176V279ZM199 256C199 268.703 188.703 279 176 279V281C189.807 281 201 269.807 201 256H199ZM199 24V256H201V24H199ZM176 1C188.703 1 199 11.2975 199 24H201C201 10.1929 189.807 -1 176 -1V1ZM30 1H176V-1H30V1Z" fill="white" mask="url(#path-1-inside-1_5005_86)"/>
</g>
<rect x="6" y="224" width="46" height="46" rx="23" fill="#F3F3FA"/>
<path d="M37.8281 241.616L23.1974 251.808" stroke="#111013" stroke-width="2" stroke-miterlimit="10"/>
<path d="M34.0156 255.29C31.1623 251.236 25.5589 250.25 21.4874 253.086" stroke="#111013" stroke-width="2" stroke-miterlimit="10"/>
<path d="M21.4855 253.087C25.557 250.25 26.5427 244.675 23.6894 240.622" stroke="#111013" stroke-width="2" stroke-miterlimit="10"/>
<defs>
<filter id="filter0_b_5005_86" x="-10" y="-10" width="220" height="300" filterUnits="userSpaceOnUse" color-interpolation-filters="sRGB">
<feFlood flood-opacity="0" result="BackgroundImageFix"/>
<feGaussianBlur in="BackgroundImageFix" stdDeviation="5"/>
<feComposite in2="SourceAlpha" operator="in" result="effect1_backgroundBlur_5005_86"/>
<feBlend mode="normal" in="SourceGraphic" in2="effect1_backgroundBlur_5005_86" result="shape"/>
</filter>
</defs>
</svg>
