<svg width="24" height="34" viewBox="0 0 24 34" fill="none" xmlns="http://www.w3.org/2000/svg">
<path d="M6.00376 1.59251C9.71802 -0.565634 14.2834 -0.527913 17.9629 1.69132C21.6061 3.95575 23.8203 7.9971 23.7999 12.3445C23.7149 16.6633 21.3406 20.723 18.3727 23.8614C16.6597 25.6809 14.7434 27.2898 12.663 28.6553C12.4488 28.7792 12.2141 28.8621 11.9705 28.9C11.7361 28.89 11.5078 28.8208 11.3063 28.6985C8.13012 26.6468 5.34367 24.0279 3.08096 20.9677C1.1876 18.4133 0.111919 15.3272 0 12.1285L0.00847658 11.6632C0.163068 7.4879 2.42215 3.67358 6.00376 1.59251ZM13.4423 8.55912C11.9324 7.9173 10.1916 8.26599 9.03264 9.44239C7.8737 10.6188 7.52529 12.3908 8.15008 13.9311C8.77486 15.4714 10.2496 16.4761 11.8857 16.4761C12.9576 16.4838 13.9879 16.0545 14.7472 15.2838C15.5064 14.5131 15.9315 13.4651 15.9277 12.3732C15.9334 10.7067 14.9523 9.20093 13.4423 8.55912Z" fill="white"/>
<path opacity="0.4" d="M11.9023 34.0001C16.5968 34.0001 20.4023 33.239 20.4023 32.3001C20.4023 31.3612 16.5968 30.6001 11.9023 30.6001C7.20792 30.6001 3.40234 31.3612 3.40234 32.3001C3.40234 33.239 7.20792 34.0001 11.9023 34.0001Z" fill="white"/>
</svg>
