<svg width="136" height="41" viewBox="0 0 136 41" fill="none" xmlns="http://www.w3.org/2000/svg">
<g clip-path="url(#clip0_5403_369)">
<mask id="mask0_5403_369" style="mask-type:luminance" maskUnits="userSpaceOnUse" x="0" y="0" width="136" height="41">
<path d="M135.767 0.241211H0.882812V40.2412H135.767V0.241211Z" fill="white"/>
</mask>
<g mask="url(#mask0_5403_369)">
<path d="M41.3668 3.51922H2.54113C1.65083 3.51922 0.927734 2.7857 0.927734 1.88255C0.927734 0.979395 1.65083 0.241287 2.54113 0.241287H41.3621C42.2571 0.241287 42.98 0.974812 42.98 1.88255C42.98 2.79029 42.2571 3.52381 41.3621 3.52381L41.3668 3.51922Z" fill="#FFF669"/>
<path d="M41.4402 9.63946H2.35707C1.56167 9.63946 0.919922 8.98847 0.919922 8.18158C0.919922 7.3747 1.56167 6.72371 2.35707 6.72371H41.4402C42.2357 6.72371 42.8772 7.3747 42.8772 8.18158C42.8772 8.98847 42.2357 9.63946 41.4402 9.63946Z" fill="#FFF669"/>
<path d="M21.487 15.76H2.20754C1.51157 15.76 0.951172 15.1869 0.951172 14.4855C0.951172 13.7841 1.51609 13.211 2.20754 13.211H21.487C22.183 13.211 22.7434 13.7841 22.7434 14.4855C22.7434 15.1869 22.1784 15.76 21.487 15.76Z" fill="#FFF669"/>
<path d="M41.8777 21.8802H1.95841C1.36186 21.8802 0.882812 21.3896 0.882812 20.7891C0.882812 20.1885 1.36638 19.6979 1.95841 19.6979H41.8777C42.474 19.6979 42.9532 20.1885 42.9532 20.7891C42.9532 21.3896 42.4697 21.8802 41.8777 21.8802Z" fill="#FFF669"/>
<path d="M41.9766 28.0005H1.81341C1.31628 28.0005 0.914062 27.5925 0.914062 27.0882C0.914062 26.5839 1.31628 26.1759 1.81341 26.1759H41.9813C42.4781 26.1759 42.8806 26.5839 42.8806 27.0882C42.8806 27.5925 42.4781 28.0005 41.9813 28.0005H41.9766Z" fill="#FFF669"/>
<path d="M21.4857 34.121H1.66389C1.26619 34.121 0.945312 33.7955 0.945312 33.3921C0.945312 32.9886 1.26619 32.6632 1.66389 32.6632H21.4857C21.8833 32.6632 22.2042 32.9886 22.2042 33.3921C22.2042 33.7955 21.8833 34.121 21.4857 34.121Z" fill="#FFF669"/>
<path d="M21.4861 40.2411H1.46553C1.16726 40.2411 0.927734 39.9983 0.927734 39.6956C0.927734 39.3929 1.16726 39.15 1.46553 39.15H21.4861C21.7844 39.15 22.0239 39.3929 22.0239 39.6956C22.0239 39.9983 21.7844 40.2411 21.4861 40.2411Z" fill="#FFF669"/>
<path d="M87.7529 3.51893H48.087C47.192 3.51893 46.4688 2.7854 46.4688 1.87766C46.4688 0.969931 47.192 0.236404 48.087 0.236404H87.7529C88.6479 0.236404 89.3708 0.969931 89.3708 1.87766C89.3708 2.7854 88.6479 3.51893 87.7529 3.51893Z" fill="#FFF669"/>
<path d="M87.7538 9.63946H48.0878C47.2923 9.63946 46.6504 8.98847 46.6504 8.18158C46.6504 7.3747 47.2923 6.72371 48.0878 6.72371H87.7538C88.5493 6.72371 89.1908 7.3747 89.1908 8.18158C89.1908 8.98847 88.5493 9.63946 87.7538 9.63946Z" fill="#FFF669"/>
<path d="M78.0851 15.76H58.0688C57.373 15.76 56.8125 15.1869 56.8125 14.4855C56.8125 13.7841 57.3773 13.211 58.0688 13.211H78.0851C78.7808 13.211 79.3413 13.7841 79.3413 14.4855C79.3413 15.1869 78.7765 15.76 78.0851 15.76Z" fill="#FFF669"/>
<path d="M78.2477 21.8802H57.902C57.3053 21.8802 56.8262 21.3896 56.8262 20.7891C56.8262 20.1885 57.3097 19.6979 57.902 19.6979H78.2477C78.8444 19.6979 79.3235 20.1885 79.3235 20.7891C79.3235 21.3896 78.8397 21.8802 78.2477 21.8802Z" fill="#FFF669"/>
<path d="M78.4445 28.0005H57.7548C57.258 28.0005 56.8555 27.5925 56.8555 27.0881C56.8555 26.5839 57.258 26.1759 57.7548 26.1759H78.4445C78.9413 26.1759 79.3438 26.5839 79.3438 27.0881C79.3438 27.5925 78.9413 28.0005 78.4445 28.0005Z" fill="#FFF669"/>
<path d="M78.612 34.121H57.5564C57.159 34.121 56.8379 33.7955 56.8379 33.3921C56.8379 32.9886 57.159 32.6632 57.5564 32.6632H78.612C79.0098 32.6632 79.3306 32.9886 79.3306 33.3921C79.3306 33.7955 79.0098 34.121 78.612 34.121Z" fill="#FFF669"/>
<path d="M78.7886 40.2411H57.358C57.0597 40.2411 56.8203 39.9983 56.8203 39.6956C56.8203 39.3929 57.0597 39.15 57.358 39.15H78.7886C79.087 39.15 79.3264 39.3929 79.3264 39.6956C79.3264 39.9983 79.087 40.2411 78.7886 40.2411Z" fill="#FFF669"/>
<path d="M134.136 3.51893H94.4694C93.5748 3.51893 92.8516 2.7854 92.8516 1.87766C92.8516 0.969931 93.5748 0.236404 94.4694 0.236404H134.136C135.03 0.236404 135.754 0.969931 135.754 1.87766C135.754 2.7854 135.03 3.51893 134.136 3.51893Z" fill="#FFF669"/>
<path d="M134.328 9.63946H94.3007C93.5052 9.63946 92.8633 8.98847 92.8633 8.18158C92.8633 7.3747 93.5052 6.72371 94.3007 6.72371H134.328C135.123 6.72371 135.765 7.3747 135.765 8.18158C135.765 8.98847 135.123 9.63946 134.328 9.63946Z" fill="#FFF669"/>
<path d="M109.564 15.76H94.1078C93.4121 15.76 92.8516 15.1869 92.8516 14.4855C92.8516 13.7841 93.4164 13.211 94.1078 13.211H109.564C110.26 13.211 110.82 13.7841 110.82 14.4855C110.82 15.1869 110.256 15.76 109.564 15.76Z" fill="#FFF669"/>
<path d="M134.509 15.7598H119.044C118.348 15.7598 117.787 15.1868 117.787 14.4854C117.787 13.7839 118.352 13.2108 119.044 13.2108H134.509C135.205 13.2108 135.765 13.7839 135.765 14.4854C135.765 15.1868 135.2 15.7598 134.509 15.7598Z" fill="#FFF669"/>
<path d="M134.69 21.8801H93.9078C93.3112 21.8801 92.832 21.3895 92.832 20.789C92.832 20.1884 93.3159 19.6978 93.9078 19.6978H134.69C135.287 19.6978 135.766 20.1884 135.766 20.789C135.766 21.3895 135.282 21.8801 134.69 21.8801Z" fill="#FFF669"/>
<path d="M134.864 28.0005H93.7568C93.2595 28.0005 92.8574 27.5925 92.8574 27.0881C92.8574 26.5839 93.2595 26.1759 93.7568 26.1759H134.864C135.362 26.1759 135.764 26.5839 135.764 27.0881C135.764 27.5925 135.362 28.0005 134.864 28.0005Z" fill="#FFF669"/>
<path d="M109.563 34.121H93.5603C93.1626 34.121 92.8418 33.7955 92.8418 33.3921C92.8418 32.9886 93.1626 32.6632 93.5603 32.6632H109.563C109.961 32.6632 110.282 32.9886 110.282 33.3921C110.282 33.7955 109.961 34.121 109.563 34.121Z" fill="#FFF669"/>
<path d="M109.565 40.2411H93.4127C93.1144 40.2411 92.875 39.9983 92.875 39.6956C92.875 39.3929 93.1144 39.15 93.4127 39.15H109.565C109.863 39.15 110.103 39.3929 110.103 39.6956C110.103 39.9983 109.863 40.2411 109.565 40.2411Z" fill="#FFF669"/>
<path d="M135.045 34.1209H119.043C118.645 34.1209 118.324 33.7954 118.324 33.3919C118.324 32.9885 118.645 32.663 119.043 32.663H135.045C135.443 32.663 135.764 32.9885 135.764 33.3919C135.764 33.7954 135.443 34.1209 135.045 34.1209Z" fill="#FFF669"/>
<path d="M135.229 40.2411H119.046C118.748 40.2411 118.508 39.9983 118.508 39.6956C118.508 39.3929 118.748 39.15 119.046 39.15H135.229C135.528 39.15 135.767 39.3929 135.767 39.6956C135.767 39.9983 135.528 40.2411 135.229 40.2411Z" fill="#FFF669"/>
</g>
</g>
<defs>
<clipPath id="clip0_5403_369">
<rect width="134.884" height="40" fill="white" transform="translate(0.882812 0.241211)"/>
</clipPath>
</defs>
</svg>
