<svg width="88" height="88" viewBox="0 0 88 88" fill="none" xmlns="http://www.w3.org/2000/svg">
<path d="M22.8454 82.6083C25.1603 80.2934 26.4608 77.1537 26.4608 73.8799C26.4608 70.6061 25.1603 67.4664 22.8454 65.1515C21.6992 64.0053 20.3384 63.0961 18.8408 62.4757C17.3432 61.8554 15.738 61.5361 14.117 61.5361C10.8433 61.5361 7.70357 62.8366 5.38866 65.1515C1.95323 68.5844 0.601843 73.9045 0.172091 78.725C-0.0720006 81.4515 -0.0563972 84.1951 0.218691 86.9187C0.248464 87.1333 0.346663 87.3326 0.498704 87.487C0.650745 87.6414 0.848521 87.7426 1.06266 87.7756H1.09373C1.37074 87.7756 5.31617 87.8663 6.53035 84.0244C6.74918 83.3065 7.07003 82.6239 7.48305 81.9973C7.65169 81.7463 7.90063 81.5601 8.18902 81.4693C8.47741 81.3784 8.78811 81.3883 9.07016 81.4972C9.3522 81.6062 9.58883 81.8078 9.74123 82.069C9.89361 82.3301 9.95271 82.6353 9.90882 82.9345C9.71147 84.3969 10.0144 85.8831 10.7683 87.1517C10.8516 87.2923 10.9749 87.4049 11.1224 87.475C11.27 87.5451 11.4352 87.5696 11.5968 87.5452C15.7208 86.9161 19.951 85.5026 22.8454 82.6083Z" fill="url(#paint0_linear_5164_7255)"/>
<path d="M87.9165 7.68636C87.6576 3.3992 84.5975 0.336569 80.313 0.080271C65.7454 -0.786999 49.5287 5.38486 36.8769 18.0392L33.5114 21.4048C32.3033 22.6129 31.1478 23.8599 30.0449 25.1457H19.4047C18.3028 25.2023 17.2327 25.534 16.2921 26.1106C15.3514 26.6872 14.5702 27.4903 14.0198 28.4465L7.75477 40.9662C7.58715 41.4153 7.46994 41.8815 7.40527 42.3565C7.41468 43.1603 7.73819 43.9286 8.30663 44.497C8.87508 45.0655 9.64335 45.389 10.4472 45.3984H18.3691C17.3336 48.8493 18.0274 52.2433 20.2202 54.4361L33.5735 67.7895C35.7663 69.9823 39.1603 70.6657 42.6113 69.6405V77.5443C42.6207 78.3482 42.9442 79.1165 43.5126 79.6849C44.0811 80.2533 44.8494 80.5769 45.6532 80.5863C46.1278 80.5213 46.5939 80.405 47.0434 80.2394L59.5321 73.9872C60.4882 73.4361 61.2911 72.6543 61.8677 71.7133C62.4442 70.7723 62.776 69.7019 62.8329 68.5998V57.9622C64.1135 56.8645 65.364 55.7116 66.5842 54.5034L69.9497 51.1379C82.6119 38.468 88.7863 22.2436 87.9165 7.68636ZM73.3437 32.4981C71.5795 34.2625 69.3316 35.4642 66.8844 35.9511C64.4372 36.438 61.9005 36.1883 59.5952 35.2335C57.2899 34.2787 55.3195 32.6618 53.9333 30.5871C52.547 28.5125 51.807 26.0733 51.807 23.5781C51.807 21.0829 52.547 18.6438 53.9333 16.5691C55.3195 14.4945 57.2899 12.8775 59.5952 11.9227C61.9005 10.9679 64.4372 10.7182 66.8844 11.2051C69.3316 11.692 71.5795 12.8937 73.3437 14.6582C74.5153 15.8294 75.4447 17.22 76.0788 18.7505C76.7128 20.281 77.0392 21.9215 77.0392 23.5781C77.0392 25.2348 76.7128 26.8752 76.0788 28.4057C75.4447 29.9362 74.5153 31.3268 73.3437 32.4981Z" fill="url(#paint1_linear_5164_7255)"/>
<defs>
<linearGradient id="paint0_linear_5164_7255" x1="20.4015" y1="85.0522" x2="2.94477" y2="67.5954" gradientUnits="userSpaceOnUse">
<stop stop-color="#FE7838"/>
<stop offset="0.54" stop-color="#FE7636"/>
<stop offset="1" stop-color="#FFAD8A"/>
</linearGradient>
<linearGradient id="paint1_linear_5164_7255" x1="78.6846" y1="55.1507" x2="32.8461" y2="9.31217" gradientUnits="userSpaceOnUse">
<stop stop-color="#6F2EFE"/>
<stop offset="0.52" stop-color="#6F2EFE"/>
<stop offset="1" stop-color="#AE90FF"/>
</linearGradient>
</defs>
</svg>
