<svg width="46" height="46" viewBox="0 0 46 46" fill="none" xmlns="http://www.w3.org/2000/svg">
<circle cx="23" cy="23" r="21" fill="#028CB0"/>
<path d="M9.27962 23C9.27962 28.4371 12.4421 33.12 17.0156 35.3459L10.4716 17.417C9.68584 19.1734 9.27965 21.0758 9.27962 23ZM23 36.7204C24.5934 36.7204 26.126 36.4406 27.5613 35.9419L27.464 35.7595L23.2433 24.2042L19.132 36.1609C20.3484 36.5258 21.6499 36.7204 23 36.7204ZM24.8853 16.5655L29.848 31.3198L31.2225 26.7463C31.8063 24.8488 32.2564 23.4865 32.2564 22.3067C32.2564 20.6038 31.6482 19.4361 31.1374 18.536C30.4319 17.3926 29.7872 16.4317 29.7872 15.3127C29.7872 14.0477 30.736 12.88 32.0983 12.88H32.2686C29.7404 10.5591 26.4319 9.2739 23 9.27962C20.7276 9.27919 18.4908 9.84367 16.4907 10.9223C14.4907 12.0009 12.7901 13.5597 11.542 15.4587L12.4178 15.483C13.8531 15.483 16.0668 15.3005 16.0668 15.3005C16.821 15.264 16.9061 16.3466 16.1641 16.4317C16.1641 16.4317 15.4222 16.529 14.5829 16.5655L19.5942 31.4293L22.5986 22.4283L20.4578 16.5655C19.9783 16.5391 19.4997 16.4985 19.0225 16.4439C18.2806 16.3952 18.3657 15.264 19.1077 15.3005C19.1077 15.3005 21.3701 15.483 22.7202 15.483C24.1555 15.483 26.3693 15.3005 26.3693 15.3005C27.1113 15.264 27.2086 16.3466 26.4666 16.4317C26.4666 16.4317 25.7246 16.5169 24.8853 16.5655ZM29.8967 34.8594C31.9723 33.6525 33.6949 31.9221 34.8923 29.841C36.0897 27.7599 36.7201 25.401 36.7204 23C36.7204 20.616 36.1122 18.3779 35.0418 16.4196C35.2592 18.5741 34.933 20.7487 34.0931 22.7446L29.8967 34.8594ZM23 38.8125C18.8063 38.8125 14.7843 37.1465 11.8189 34.1811C8.85346 31.2157 7.1875 27.1937 7.1875 23C7.1875 18.8063 8.85346 14.7843 11.8189 11.8189C14.7843 8.85346 18.8063 7.1875 23 7.1875C27.1937 7.1875 31.2157 8.85346 34.1811 11.8189C37.1465 14.7843 38.8125 18.8063 38.8125 23C38.8125 27.1937 37.1465 31.2157 34.1811 34.1811C31.2157 37.1465 27.1937 38.8125 23 38.8125Z" fill="white"/>
</svg>
