<svg width="29" height="43" viewBox="0 0 29 43" fill="none" xmlns="http://www.w3.org/2000/svg">
<path fill-rule="evenodd" clip-rule="evenodd" d="M14.3345 21.4985C14.3345 17.5404 17.5429 14.3318 21.5007 14.3318C25.4586 14.3318 28.667 17.5404 28.667 21.4985C28.667 25.4565 25.4586 28.6651 21.5007 28.6651C17.5429 28.6651 14.3345 25.4565 14.3345 21.4985Z" fill="#1ABCFE"/>
<path fill-rule="evenodd" clip-rule="evenodd" d="M0 35.8334C0 31.8754 3.20845 28.6667 7.16627 28.6667H14.3325V35.8334C14.3325 39.7915 11.1241 43.0001 7.16627 43.0001C3.20845 43.0001 0 39.7915 0 35.8334Z" fill="#0ACF83"/>
<path fill-rule="evenodd" clip-rule="evenodd" d="M14.3345 0V14.3333H21.5007C25.4586 14.3333 28.667 11.1247 28.667 7.16667C28.667 3.20863 25.4586 0 21.5007 0H14.3345Z" fill="#FF7262"/>
<path fill-rule="evenodd" clip-rule="evenodd" d="M0 7.16667C0 11.1247 3.20845 14.3333 7.16627 14.3333H14.3325V0H7.16627C3.20845 0 0 3.20863 0 7.16667Z" fill="#F24E1E"/>
<path fill-rule="evenodd" clip-rule="evenodd" d="M0 21.4985C0 25.4565 3.20845 28.6651 7.16627 28.6651H14.3325V14.3318H7.16627C3.20845 14.3318 0 17.5404 0 21.4985Z" fill="#A259FF"/>
</svg>
