<svg width="46" height="46" viewBox="0 0 46 46" fill="none" xmlns="http://www.w3.org/2000/svg">
<ellipse cx="22.988" cy="23" rx="22.988" ry="23" fill="#1275B1"/>
<path d="M17.3674 14.5547C18.9544 14.5547 20.2409 13.2675 20.2409 11.6797C20.2409 10.0919 18.9544 8.80469 17.3674 8.80469C15.7805 8.80469 14.4939 10.0919 14.4939 11.6797C14.4939 13.2675 15.7805 14.5547 17.3674 14.5547Z" fill="white"/>
<path d="M11.3639 17.019L10.3633 20.6897H13.6473C12.9888 23.3679 11.6102 29.0016 11.3639 30.1105C11.056 31.4966 11.0046 35.4498 15.161 35.4498C18.062 35.4498 19.9124 33.5747 20.9445 32.0436L20.164 35.1674H24.8334L27.2708 25.2968C27.6171 23.6546 28.4324 20.4844 31.3758 20.4844C34.8764 20.4844 33.5921 24.6318 32.9628 26.6644C32.9371 26.7472 32.9126 26.8264 32.8895 26.9018C32.4174 28.442 31.9146 30.2388 31.9146 31.471C31.9146 32.8571 32.556 35.4498 36.1478 35.4498C39.7397 35.4498 41.2705 31.8902 41.587 30.1105L39.7654 29.3661C39.6371 30.3158 38.4826 32.3694 37.405 32.3694C35.9298 32.3694 36.6708 29.8811 37.4616 27.2255C37.8124 26.0477 38.173 24.8369 38.3543 23.7958C38.8127 21.1634 38.3543 16.6853 33.7875 16.6853C30.9511 16.6853 28.7238 19.214 27.6643 20.9696L28.5536 17.019H21.4468L20.4719 20.6897H23.7815C23.7815 20.6897 21.8175 28.6979 21.6905 28.9489C20.3564 31.5865 18.3386 32.4718 16.8287 32.3694C15.6177 32.2873 15.7597 30.8292 15.982 30.1105L19.266 17.019H11.3639Z" fill="white"/>
</svg>
