<svg width="44" height="44" viewBox="0 0 44 44" fill="none" xmlns="http://www.w3.org/2000/svg">
<g style="mix-blend-mode:luminosity">
<path d="M0 15.9238C0 10.35 0 7.56303 1.08474 5.43409C2.03891 3.56143 3.56143 2.03891 5.43409 1.08474C7.56303 0 10.35 0 15.9238 0H28.0762C33.65 0 36.437 0 38.5659 1.08474C40.4386 2.03891 41.9611 3.56143 42.9153 5.43409C44 7.56303 44 10.35 44 15.9238V28.0762C44 33.65 44 36.437 42.9153 38.5659C41.9611 40.4386 40.4386 41.9611 38.5659 42.9153C36.437 44 33.65 44 28.0762 44H15.9238C10.35 44 7.56303 44 5.43409 42.9153C3.56143 41.9611 2.03891 40.4386 1.08474 38.5659C0 36.437 0 33.65 0 28.0762V15.9238Z" fill="#330000"/>
<path d="M21.3146 27.6513H14.4963L13.109 32.0712C13.0705 32.2354 12.9193 32.3517 12.7548 32.3437H9.30136C9.10442 32.3437 9.03554 32.2327 9.09474 32.0107L14.998 14.5731C15.0571 14.3915 15.1162 14.1846 15.1752 13.9525C15.2524 13.5486 15.2919 13.1381 15.2933 12.7265C15.2763 12.6049 15.3832 12.4975 15.4999 12.5145H20.193C20.3305 12.5145 20.4092 12.565 20.4291 12.6659L27.1295 32.0409C27.1885 32.2429 27.1294 32.3438 26.9523 32.3437H23.1151C22.9805 32.359 22.852 32.2667 22.82 32.1318L21.3146 27.6513ZM15.5589 23.8368H20.2225C19.4563 21.2186 18.5916 18.6347 17.8907 15.996C17.1346 18.6391 16.3096 21.2716 15.5589 23.8368Z" fill="#FF9A00"/>
<path d="M31.1138 15.7234C30.8128 15.7358 30.5125 15.6829 30.2328 15.5682C29.9531 15.4534 29.7001 15.2793 29.4904 15.0574C29.2813 14.8259 29.1189 14.5542 29.0125 14.2581C28.9061 13.9619 28.8579 13.6472 28.8705 13.3318C28.8598 13.0196 28.9134 12.7086 29.0278 12.4191C29.1423 12.1296 29.315 11.8681 29.5346 11.6516C29.7522 11.4375 30.009 11.2697 30.2902 11.158C30.5714 11.0462 30.8714 10.9928 31.1728 11.0008C31.8813 11.0008 32.4372 11.2177 32.8405 11.6516C33.0441 11.8771 33.2025 12.1416 33.3062 12.4299C33.41 12.7182 33.4574 13.0247 33.4456 13.3318C33.4579 13.6484 33.4081 13.9643 33.2991 14.2607C33.1901 14.5571 33.0241 14.8281 32.811 15.0574C32.5883 15.2826 32.3225 15.458 32.0304 15.5727C31.7383 15.6873 31.4262 15.7386 31.1138 15.7234ZM29.0771 32.0408V17.5701C29.0771 17.3885 29.1555 17.2976 29.3132 17.2976H32.9438C33.1011 17.2976 33.1798 17.3884 33.18 17.5701V32.0408C33.18 32.2428 33.1013 32.3437 32.9438 32.3436H29.3428C29.1657 32.3436 29.0772 32.2427 29.0771 32.0408Z" fill="#FF9A00"/>
</g>
</svg>
