<svg width="42" height="42" viewBox="0 0 42 42" fill="none" xmlns="http://www.w3.org/2000/svg">
<path d="M0 15.2C0 9.8795 0 7.21925 1.0349 5.18709C1.94522 3.39955 3.39778 1.94624 5.18439 1.03544C7.21549 0 9.87436 0 15.1921 0H26.786C32.1038 0 34.7626 0 36.7937 1.03544C38.5804 1.94624 40.0329 3.39955 40.9432 5.18709C41.9781 7.21925 41.9781 9.8795 41.9781 15.2V26.8C41.9781 32.1205 41.9781 34.7807 40.9432 36.8129C40.0329 38.6004 38.5804 40.0538 36.7937 40.9646C34.7626 42 32.1038 42 26.786 42H15.1921C9.87436 42 7.21549 42 5.18439 40.9646C3.39778 40.0538 1.94522 38.6004 1.0349 36.8129C0 34.7807 0 32.1205 0 26.8V15.2Z" fill="#0E0F12"/>
<path d="M8.99414 30.7753V12.3061C8.99414 12.1805 9.04661 12.1087 9.16905 12.1087C10.9766 12.1087 12.7832 12.001 14.5912 12.001C17.5249 12.001 20.7015 13.0046 21.815 16.0753C22.0773 16.8292 22.2173 17.601 22.2173 18.4087C22.2173 19.9523 21.8674 21.2266 21.1678 22.2317C19.2134 25.0395 15.8261 24.9958 12.7897 24.9958V30.7574C12.8134 30.928 12.6681 31.0087 12.5273 31.0087H9.20403C9.0641 31.0087 8.99414 30.9369 8.99414 30.7753ZM12.8072 15.5728V21.6035C14.0111 21.6918 15.271 21.7014 16.4278 21.3164C17.7048 20.9478 18.4042 19.8417 18.4042 18.5164C18.4397 17.387 17.8247 16.3034 16.7776 15.8958C15.6347 15.4204 14.0408 15.3919 12.8072 15.5728Z" fill="#31A8FF"/>
<path d="M33.1266 20.412C32.5973 20.133 32.0337 19.9288 31.451 19.8052C30.7022 19.6289 27.749 19.0115 27.7479 20.5565C27.7741 21.4191 29.1426 21.8416 29.7473 22.0881C31.8699 22.8172 34.272 24.1205 34.2248 26.7406C34.2897 30.0022 31.1312 31.306 28.4238 31.3064C27.0143 31.321 25.5459 31.1025 24.256 30.4972C24.1329 30.432 24.0536 30.2925 24.0589 30.1504V27.0295C24.045 26.9044 24.1792 26.795 24.2842 26.885C25.548 27.6498 27.0461 28.0211 28.5082 28.0409C29.1536 28.0409 30.4329 27.9783 30.4232 27.0295C30.4232 26.119 28.8929 25.7004 28.2829 25.469C27.3987 25.1532 26.5603 24.7158 25.7907 24.1687C24.7152 23.4011 24.0405 22.1705 24.0589 20.8166C24.0526 17.7455 26.96 16.367 29.5784 16.3664C30.8024 16.3563 32.1168 16.447 33.2563 16.9443C33.4201 16.9926 33.4541 17.1653 33.4534 17.32V20.2386C33.4638 20.4198 33.2627 20.4815 33.1266 20.412Z" fill="#31A8FF"/>
</svg>
