<svg width="42" height="42" viewBox="0 0 42 42" fill="none" xmlns="http://www.w3.org/2000/svg">
<path d="M0 15.2C0 9.8795 0 7.21925 1.03544 5.18709C1.94624 3.39955 3.39955 1.94624 5.18709 1.03544C7.21925 0 9.8795 0 15.2 0H26.8C32.1205 0 34.7807 0 36.8129 1.03544C38.6004 1.94624 40.0538 3.39955 40.9646 5.18709C42 7.21925 42 9.8795 42 15.2V26.8C42 32.1205 42 34.7807 40.9646 36.8129C40.0538 38.6004 38.6004 40.0538 36.8129 40.9646C34.7807 42 32.1205 42 26.8 42H15.2C9.8795 42 7.21925 42 5.18709 40.9646C3.39955 40.0538 1.94624 38.6004 1.03544 36.8129C0 34.7807 0 32.1205 0 26.8V15.2Z" fill="#470137"/>
<path d="M21.9736 12.3507L16.733 21.2222L22.3399 30.6428C22.4564 30.8564 22.3399 30.9036 22.1708 30.9036H18.17C17.8882 30.9036 17.691 30.8934 17.5783 30.7006C17.2023 29.9493 16.8267 29.2028 16.4513 28.4611C16.0753 27.7196 15.6762 26.9635 15.2539 26.1926C14.8313 25.4223 14.4133 24.6421 14.0001 23.8519C13.6241 24.6226 13.2062 25.3932 12.8026 26.1637C12.3985 26.9344 11.9994 27.7002 11.6052 28.4611C11.2108 29.2223 10.807 29.9784 10.3937 30.7295C10.3184 30.9029 10.1868 30.9208 9.99921 30.9208H6.1393C5.98764 30.9208 5.96933 30.8067 6.05479 30.6717L11.4925 21.5112L6.19561 12.3218C6.09939 12.1907 6.1822 12.051 6.33651 12.0617H10.3091C10.4811 12.052 10.6332 12.1169 10.7318 12.264C11.0699 13.0347 11.4455 13.8053 11.8588 14.5758C12.2717 15.3466 12.6897 16.1075 13.1126 16.8587C13.5352 17.61 13.9531 18.371 14.31 19.1416C14.6855 18.3519 15.0659 17.5813 15.4511 16.8298C15.8359 16.0785 16.2303 15.3223 16.6344 14.5614C17.0382 13.8005 17.4279 13.0444 17.8037 12.2929C17.8536 12.1281 17.973 12.0445 18.1418 12.0617H21.8327C21.9736 12.0617 22.0319 12.2541 21.9736 12.3507Z" fill="#FF61F6"/>
<path d="M30.0596 31.2788C27.5748 31.3175 24.9722 30.2945 23.6639 28.0278C23.0251 26.9396 22.7058 25.5766 22.7059 23.9388C22.6953 22.6125 23.0258 21.3068 23.6639 20.1532C25.3104 17.21 28.6275 16.1072 31.7783 16.3966V10.7038C31.7783 10.5692 31.8347 10.5015 31.9474 10.5015H35.4973C35.5944 10.4873 35.6803 10.5754 35.6664 10.6749V27.7533C35.6664 28.4579 35.7363 29.1601 35.7792 29.8628C35.7861 29.9828 35.7166 30.1015 35.6101 30.1517C33.856 30.9021 31.9581 31.2701 30.0596 31.2788ZM31.7782 27.6955V19.8065C29.2049 19.0915 26.7064 21.0516 26.7068 23.7654C26.6456 26.5711 29.0642 28.5096 31.7782 27.6955Z" fill="#FF61F6"/>
</svg>
